<?xml version="1.0" encoding="UTF-8" standalone="no"?>
<!DOCTYPE svg PUBLIC "-//W3C//DTD SVG 1.1//EN"
 "http://www.w3.org/Graphics/SVG/1.1/DTD/svg11.dtd">
<!-- Generated by graphviz version 2.46.0 (20210118.1747)
 -->
<!-- Pages: 1 -->
<svg width="998pt" height="745pt"
 viewBox="0.00 0.00 998.16 745.46" xmlns="http://www.w3.org/2000/svg" xmlns:xlink="http://www.w3.org/1999/xlink">
<g id="graph0" class="graph" transform="scale(1 1) rotate(0) translate(4 741.46)">
<polygon fill="white" stroke="transparent" points="-4,4 -4,-741.46 994.16,-741.46 994.16,4 -4,4"/>
<!-- previous angle 3 -->
<g id="node1" class="node">
<title>previous angle 3</title>
<polygon fill="lightgray" stroke="black" points="92.63,-563.12 17.63,-563.12 17.63,-545.12 92.63,-545.12 92.63,-563.12"/>
<text text-anchor="middle" x="55.13" y="-551.92" font-family="Times New Roman,serif" font-size="9.00">previous angle 3</text>
</g>
<!-- motor torque 1 -->
<g id="node12" class="node">
<title>motor torque 1</title>
<ellipse fill="lightblue" stroke="black" cx="407.13" cy="-171.76" rx="50.41" ry="50.41"/>
<text text-anchor="middle" x="407.13" y="-169.56" font-family="Times New Roman,serif" font-size="9.00">motor torque 1</text>
</g>
<!-- previous angle 3&#45;&gt;motor torque 1 -->
<g id="edge26" class="edge">
<title>previous angle 3&#45;&gt;motor torque 1</title>
<path fill="none" stroke="red" stroke-width="0.94" stroke-dasharray="1,5" d="M50.44,-545.05C38.83,-523.95 11.26,-465.9 33.13,-424.78 100.57,-298.03 263.29,-223.55 350.19,-191.5"/>
<polygon fill="red" stroke="red" stroke-width="0.94" points="351.43,-194.77 359.64,-188.07 349.04,-188.19 351.43,-194.77"/>
</g>
<!-- 35912 -->
<g id="node20" class="node">
<title>35912</title>
<ellipse fill="white" stroke="black" cx="226.13" cy="-455.9" rx="27.65" ry="27.65"/>
<text text-anchor="middle" x="226.13" y="-453.7" font-family="Times New Roman,serif" font-size="9.00">35912</text>
</g>
<!-- previous angle 3&#45;&gt;35912 -->
<g id="edge40" class="edge">
<title>previous angle 3&#45;&gt;35912</title>
<path fill="none" stroke="green" stroke-width="0.15" d="M67.04,-544.88C76.22,-538.65 89.29,-529.99 101.13,-523.01 131.5,-505.09 167.15,-486.46 192.59,-473.57"/>
<polygon fill="green" stroke="green" stroke-width="0.15" points="194.45,-476.55 201.8,-468.92 191.3,-470.3 194.45,-476.55"/>
</g>
<!-- 304 -->
<g id="node22" class="node">
<title>304</title>
<ellipse fill="white" stroke="black" cx="581.13" cy="-455.9" rx="21.43" ry="21.43"/>
<text text-anchor="middle" x="581.13" y="-453.7" font-family="Times New Roman,serif" font-size="9.00">304</text>
</g>
<!-- previous angle 3&#45;&gt;304 -->
<g id="edge1" class="edge">
<title>previous angle 3&#45;&gt;304</title>
<path fill="none" stroke="green" stroke-width="0.6" d="M64.6,-544.86C73.4,-537.7 87.22,-527.77 101.13,-523.01 290.96,-458.05 369.06,-571.3 551.13,-487.01 554.79,-485.31 558.26,-482.97 561.45,-480.33"/>
<polygon fill="green" stroke="green" stroke-width="0.6" points="563.93,-482.8 568.75,-473.36 559.1,-477.73 563.93,-482.8"/>
</g>
<!-- 306 -->
<g id="node24" class="node">
<title>306</title>
<ellipse fill="white" stroke="black" cx="313.13" cy="-338.58" rx="21.43" ry="21.43"/>
<text text-anchor="middle" x="313.13" y="-336.38" font-family="Times New Roman,serif" font-size="9.00">306</text>
</g>
<!-- previous angle 3&#45;&gt;306 -->
<g id="edge2" class="edge">
<title>previous angle 3&#45;&gt;306</title>
<path fill="none" stroke="red" stroke-width="0.21" stroke-dasharray="1,5" d="M62.96,-544.83C74.42,-532.56 96.23,-508.68 113.13,-487.01 133.81,-460.5 131.12,-447.24 156.13,-424.78 194.82,-390.05 250.17,-364.26 283.77,-350.61"/>
<polygon fill="red" stroke="red" stroke-width="0.21" points="285.45,-353.7 293.45,-346.76 282.87,-347.2 285.45,-353.7"/>
</g>
<!-- 298938 -->
<g id="node28" class="node">
<title>298938</title>
<ellipse fill="white" stroke="black" cx="73.13" cy="-455.9" rx="31.23" ry="31.23"/>
<text text-anchor="middle" x="73.13" y="-453.7" font-family="Times New Roman,serif" font-size="9.00">298938</text>
</g>
<!-- previous angle 3&#45;&gt;298938 -->
<g id="edge52" class="edge">
<title>previous angle 3&#45;&gt;298938</title>
<path fill="none" stroke="green" stroke-width="0.34" d="M56.67,-544.92C58.67,-534.23 62.3,-514.79 65.65,-496.9"/>
<polygon fill="green" stroke="green" stroke-width="0.34" points="69.12,-497.37 67.52,-486.9 62.24,-496.08 69.12,-497.37"/>
</g>
<!-- previous angle 2 -->
<g id="node2" class="node">
<title>previous angle 2</title>
<polygon fill="lightgray" stroke="black" points="357.63,-563.12 282.63,-563.12 282.63,-545.12 357.63,-545.12 357.63,-563.12"/>
<text text-anchor="middle" x="320.13" y="-551.92" font-family="Times New Roman,serif" font-size="9.00">previous angle 2</text>
</g>
<!-- previous angle 2&#45;&gt;304 -->
<g id="edge3" class="edge">
<title>previous angle 2&#45;&gt;304</title>
<path fill="none" stroke="red" stroke-width="0.1" d="M330.08,-544.95C338.99,-538.06 352.69,-528.47 366.13,-523.01 443.74,-491.48 477.21,-526.41 551.13,-487.01 554.52,-485.2 557.77,-482.88 560.8,-480.34"/>
<polygon fill="red" stroke="red" stroke-width="0.1" points="563.41,-482.69 568.25,-473.26 558.59,-477.62 563.41,-482.69"/>
</g>
<!-- previous angle 2&#45;&gt;306 -->
<g id="edge4" class="edge">
<title>previous angle 2&#45;&gt;306</title>
<path fill="none" stroke="red" stroke-width="0.48" d="M319.87,-545.01C318.93,-516.55 315.78,-420.25 314.14,-370.26"/>
<polygon fill="red" stroke="red" stroke-width="0.48" points="317.63,-369.93 313.8,-360.05 310.63,-370.16 317.63,-369.93"/>
</g>
<!-- previous angle 1 -->
<g id="node3" class="node">
<title>previous angle 1</title>
<polygon fill="lightgray" stroke="black" points="450.63,-563.12 375.63,-563.12 375.63,-545.12 450.63,-545.12 450.63,-563.12"/>
<text text-anchor="middle" x="413.13" y="-551.92" font-family="Times New Roman,serif" font-size="9.00">previous angle 1</text>
</g>
<!-- previous angle 1&#45;&gt;304 -->
<g id="edge5" class="edge">
<title>previous angle 1&#45;&gt;304</title>
<path fill="none" stroke="green" stroke-width="0.5" d="M424.08,-545.02C433.16,-538.54 446.58,-529.49 459.13,-523.01 498.15,-502.88 514.41,-511.08 551.13,-487.01 554.35,-484.9 557.49,-482.41 560.47,-479.77"/>
<polygon fill="green" stroke="green" stroke-width="0.5" points="563.11,-482.09 567.87,-472.62 558.24,-477.05 563.11,-482.09"/>
</g>
<!-- previous angle 1&#45;&gt;306 -->
<g id="edge6" class="edge">
<title>previous angle 1&#45;&gt;306</title>
<path fill="none" stroke="red" stroke-width="0.25" d="M409.33,-545.01C395.72,-515.94 348.97,-416.11 326.03,-367.13"/>
<polygon fill="red" stroke="red" stroke-width="0.25" points="329.19,-365.61 321.78,-358.04 322.85,-368.58 329.19,-365.61"/>
</g>
<!-- current angle 3 -->
<g id="node4" class="node">
<title>current angle 3</title>
<polygon fill="lightgray" stroke="black" points="537.63,-563.12 468.63,-563.12 468.63,-545.12 537.63,-545.12 537.63,-563.12"/>
<text text-anchor="middle" x="503.13" y="-551.92" font-family="Times New Roman,serif" font-size="9.00">current angle 3</text>
</g>
<!-- current angle 3&#45;&gt;304 -->
<g id="edge7" class="edge">
<title>current angle 3&#45;&gt;304</title>
<path fill="none" stroke="red" stroke-width="2.27" d="M509.78,-544.92C521.17,-530.87 544.79,-501.72 561.74,-480.82"/>
<polygon fill="red" stroke="red" stroke-width="2.27" points="564.52,-482.95 568.1,-472.98 559.08,-478.54 564.52,-482.95"/>
</g>
<!-- current angle 3&#45;&gt;306 -->
<g id="edge8" class="edge">
<title>current angle 3&#45;&gt;306</title>
<path fill="none" stroke="red" stroke-width="0.31" d="M495.68,-544.83C477.01,-524.13 426.54,-468.72 382.13,-424.78 365.36,-408.19 358.08,-407.03 343.13,-388.78 337.6,-382.04 332.36,-374.18 327.85,-366.75"/>
<polygon fill="red" stroke="red" stroke-width="0.31" points="330.62,-364.56 322.56,-357.68 324.58,-368.08 330.62,-364.56"/>
</g>
<!-- current angle 2 -->
<g id="node5" class="node">
<title>current angle 2</title>
<polygon fill="lightgray" stroke="black" points="179.63,-563.12 110.63,-563.12 110.63,-545.12 179.63,-545.12 179.63,-563.12"/>
<text text-anchor="middle" x="145.13" y="-551.92" font-family="Times New Roman,serif" font-size="9.00">current angle 2</text>
</g>
<!-- current angle 2&#45;&gt;35912 -->
<g id="edge30" class="edge">
<title>current angle 2&#45;&gt;35912</title>
<path fill="none" stroke="green" stroke-width="1.31" stroke-dasharray="1,5" d="M152.04,-544.92C163.05,-531.84 185.09,-505.65 202.29,-485.23"/>
<polygon fill="green" stroke="green" stroke-width="1.31" points="205.08,-487.34 208.84,-477.44 199.72,-482.84 205.08,-487.34"/>
</g>
<!-- current angle 2&#45;&gt;304 -->
<g id="edge9" class="edge">
<title>current angle 2&#45;&gt;304</title>
<path fill="none" stroke="red" stroke-width="0.18" d="M153.9,-544.91C162.08,-537.79 174.97,-527.89 188.13,-523.01 340.15,-466.67 404.66,-556.51 551.13,-487.01 554.78,-485.28 558.24,-482.91 561.42,-480.26"/>
<polygon fill="red" stroke="red" stroke-width="0.18" points="563.9,-482.73 568.72,-473.29 559.07,-477.67 563.9,-482.73"/>
</g>
<!-- current angle 2&#45;&gt;306 -->
<g id="edge10" class="edge">
<title>current angle 2&#45;&gt;306</title>
<path fill="none" stroke="green" stroke-width="0.28" d="M146.11,-545.08C149.08,-523.56 159.64,-463.61 189.13,-424.78 214.43,-391.48 256.59,-366.5 284.62,-352.47"/>
<polygon fill="green" stroke="green" stroke-width="0.28" points="286.43,-355.48 293.9,-347.96 283.38,-349.18 286.43,-355.48"/>
</g>
<!-- current angle 1 -->
<g id="node6" class="node">
<title>current angle 1</title>
<polygon fill="lightgray" stroke="black" points="811.63,-563.12 742.63,-563.12 742.63,-545.12 811.63,-545.12 811.63,-563.12"/>
<text text-anchor="middle" x="777.13" y="-551.92" font-family="Times New Roman,serif" font-size="9.00">current angle 1</text>
</g>
<!-- 808 -->
<g id="node19" class="node">
<title>808</title>
<ellipse fill="white" stroke="black" cx="765.13" cy="-338.58" rx="21.43" ry="21.43"/>
<text text-anchor="middle" x="765.13" y="-336.38" font-family="Times New Roman,serif" font-size="9.00">808</text>
</g>
<!-- current angle 1&#45;&gt;808 -->
<g id="edge29" class="edge">
<title>current angle 1&#45;&gt;808</title>
<path fill="none" stroke="green" stroke-width="0.1" stroke-dasharray="1,5" d="M776.68,-545.01C775.08,-516.55 769.67,-420.25 766.86,-370.26"/>
<polygon fill="green" stroke="green" stroke-width="0.1" points="770.34,-369.84 766.28,-360.05 763.35,-370.23 770.34,-369.84"/>
</g>
<!-- current angle 1&#45;&gt;304 -->
<g id="edge11" class="edge">
<title>current angle 1&#45;&gt;304</title>
<path fill="none" stroke="green" stroke-width="0.16" d="M764.9,-545C755.14,-538.66 741.02,-529.83 728.13,-523.01 688.14,-501.84 640.01,-481.03 609.99,-468.58"/>
<polygon fill="green" stroke="green" stroke-width="0.16" points="611.12,-465.26 600.54,-464.69 608.45,-471.73 611.12,-465.26"/>
</g>
<!-- current angle 1&#45;&gt;306 -->
<g id="edge12" class="edge">
<title>current angle 1&#45;&gt;306</title>
<path fill="none" stroke="red" stroke-width="1.05" d="M769.82,-545.04C748.2,-521.74 681.72,-454.28 611.13,-424.78 500.24,-378.44 443.76,-454.49 343.13,-388.78 335.34,-383.7 329.25,-375.81 324.66,-367.83"/>
<polygon fill="red" stroke="red" stroke-width="1.05" points="327.77,-366.23 320.09,-358.93 321.54,-369.43 327.77,-366.23"/>
</g>
<!-- ball x cor -->
<g id="node7" class="node">
<title>ball x cor</title>
<polygon fill="lightgray" stroke="black" points="951.63,-563.12 902.63,-563.12 902.63,-545.12 951.63,-545.12 951.63,-563.12"/>
<text text-anchor="middle" x="927.13" y="-551.92" font-family="Times New Roman,serif" font-size="9.00">ball x cor</text>
</g>
<!-- 46243 -->
<g id="node16" class="node">
<title>46243</title>
<ellipse fill="white" stroke="black" cx="836.13" cy="-27.58" rx="27.65" ry="27.65"/>
<text text-anchor="middle" x="836.13" y="-25.38" font-family="Times New Roman,serif" font-size="9.00">46243</text>
</g>
<!-- ball x cor&#45;&gt;46243 -->
<g id="edge31" class="edge">
<title>ball x cor&#45;&gt;46243</title>
<path fill="none" stroke="green" stroke-width="0.36" stroke-dasharray="1,5" d="M934.22,-544.86C943.88,-532.99 960.72,-510.01 967.13,-487.01 974.56,-460.37 969.83,-452.31 967.13,-424.78 961.1,-363.28 957.69,-347.63 940.13,-288.37 915.35,-204.75 874.18,-110.64 851.79,-61.89"/>
<polygon fill="green" stroke="green" stroke-width="0.36" points="854.95,-60.37 847.58,-52.75 848.59,-63.3 854.95,-60.37"/>
</g>
<!-- 72102 -->
<g id="node17" class="node">
<title>72102</title>
<ellipse fill="white" stroke="black" cx="812.13" cy="-455.9" rx="27.65" ry="27.65"/>
<text text-anchor="middle" x="812.13" y="-453.7" font-family="Times New Roman,serif" font-size="9.00">72102</text>
</g>
<!-- ball x cor&#45;&gt;72102 -->
<g id="edge33" class="edge">
<title>ball x cor&#45;&gt;72102</title>
<path fill="none" stroke="red" stroke-width="0.39" d="M918.58,-545.05C911.99,-538.9 902.61,-530.28 894.13,-523.01 877,-508.31 857.31,-492.41 841.53,-479.88"/>
<polygon fill="red" stroke="red" stroke-width="0.39" points="843.68,-477.12 833.66,-473.67 839.34,-482.61 843.68,-477.12"/>
</g>
<!-- ball x cor&#45;&gt;304 -->
<g id="edge13" class="edge">
<title>ball x cor&#45;&gt;304</title>
<path fill="none" stroke="red" stroke-width="0.23" d="M920.41,-544.91C914.29,-538 904.62,-528.39 894.13,-523.01 844.76,-497.69 681.78,-471.62 612.61,-461.39"/>
<polygon fill="red" stroke="red" stroke-width="0.23" points="612.75,-457.88 602.35,-459.89 611.74,-464.8 612.75,-457.88"/>
</g>
<!-- ball x cor&#45;&gt;306 -->
<g id="edge14" class="edge">
<title>ball x cor&#45;&gt;306</title>
<path fill="none" stroke="green" stroke-width="0.58" stroke-dasharray="1,5" d="M922.28,-545.11C905.29,-517.07 849.51,-425.01 849.13,-424.78 752.9,-366.07 439.4,-447.43 343.13,-388.78 335.19,-383.94 329.05,-376.13 324.47,-368.13"/>
<polygon fill="green" stroke="green" stroke-width="0.58" points="327.57,-366.52 319.93,-359.18 321.33,-369.69 327.57,-366.52"/>
</g>
<!-- 723637 -->
<g id="node26" class="node">
<title>723637</title>
<ellipse fill="white" stroke="black" cx="927.13" cy="-455.9" rx="31.23" ry="31.23"/>
<text text-anchor="middle" x="927.13" y="-453.7" font-family="Times New Roman,serif" font-size="9.00">723637</text>
</g>
<!-- ball x cor&#45;&gt;723637 -->
<g id="edge54" class="edge">
<title>ball x cor&#45;&gt;723637</title>
<path fill="none" stroke="red" stroke-width="0.24" d="M927.13,-544.92C927.13,-534.36 927.13,-515.25 927.13,-497.53"/>
<polygon fill="red" stroke="red" stroke-width="0.24" points="930.63,-497.33 927.13,-487.33 923.63,-497.33 930.63,-497.33"/>
</g>
<!-- ball y cor -->
<g id="node8" class="node">
<title>ball y cor</title>
<polygon fill="lightgray" stroke="black" points="606.13,-563.12 556.13,-563.12 556.13,-545.12 606.13,-545.12 606.13,-563.12"/>
<text text-anchor="middle" x="581.13" y="-551.92" font-family="Times New Roman,serif" font-size="9.00">ball y cor</text>
</g>
<!-- ball y cor&#45;&gt;304 -->
<g id="edge15" class="edge">
<title>ball y cor&#45;&gt;304</title>
<path fill="none" stroke="green" stroke-width="0.2" stroke-dasharray="1,5" d="M581.13,-544.92C581.13,-532.36 581.13,-507.72 581.13,-487.69"/>
<polygon fill="green" stroke="green" stroke-width="0.2" points="584.63,-487.44 581.13,-477.44 577.63,-487.44 584.63,-487.44"/>
</g>
<!-- ball y cor&#45;&gt;306 -->
<g id="edge16" class="edge">
<title>ball y cor&#45;&gt;306</title>
<path fill="none" stroke="green" stroke-width="0.17" d="M572.48,-545.12C565.55,-538.85 555.48,-530.05 546.13,-523.01 522.79,-505.44 514.07,-505.1 491.13,-487.01 459.48,-462.04 458.75,-447.04 425.13,-424.78 391.94,-402.81 373.1,-414.98 343.13,-388.78 336.31,-382.82 330.56,-374.92 325.98,-367.19"/>
<polygon fill="green" stroke="green" stroke-width="0.17" points="329.01,-365.44 321.14,-358.34 322.86,-368.79 329.01,-365.44"/>
</g>
<!-- 574 -->
<g id="node29" class="node">
<title>574</title>
<ellipse fill="white" stroke="black" cx="521.13" cy="-455.9" rx="21.43" ry="21.43"/>
<text text-anchor="middle" x="521.13" y="-453.7" font-family="Times New Roman,serif" font-size="9.00">574</text>
</g>
<!-- ball y cor&#45;&gt;574 -->
<g id="edge38" class="edge">
<title>ball y cor&#45;&gt;574</title>
<path fill="none" stroke="green" stroke-width="0.57" d="M576.02,-544.92C567.57,-531.38 550.37,-503.79 537.47,-483.09"/>
<polygon fill="green" stroke="green" stroke-width="0.57" points="540.32,-481.06 532.06,-474.42 534.38,-484.76 540.32,-481.06"/>
</g>
<!-- ball x velocity -->
<g id="node9" class="node">
<title>ball x velocity</title>
<polygon fill="lightgray" stroke="black" points="264.63,-563.12 197.63,-563.12 197.63,-545.12 264.63,-545.12 264.63,-563.12"/>
<text text-anchor="middle" x="231.13" y="-551.92" font-family="Times New Roman,serif" font-size="9.00">ball x velocity</text>
</g>
<!-- motor torque 3 -->
<g id="node14" class="node">
<title>motor torque 3</title>
<ellipse fill="lightblue" stroke="black" cx="402.13" cy="-338.58" rx="50.41" ry="50.41"/>
<text text-anchor="middle" x="402.13" y="-336.38" font-family="Times New Roman,serif" font-size="9.00">motor torque 3</text>
</g>
<!-- ball x velocity&#45;&gt;motor torque 3 -->
<g id="edge46" class="edge">
<title>ball x velocity&#45;&gt;motor torque 3</title>
<path fill="none" stroke="green" stroke-width="0.11" d="M238.82,-544.72C250.11,-532.31 271.7,-508.26 289.13,-487.01 315.75,-454.56 344.51,-417 366.36,-387.91"/>
<polygon fill="green" stroke="green" stroke-width="0.11" points="369.42,-389.66 372.61,-379.56 363.82,-385.46 369.42,-389.66"/>
</g>
<!-- ball x velocity&#45;&gt;35912 -->
<g id="edge32" class="edge">
<title>ball x velocity&#45;&gt;35912</title>
<path fill="none" stroke="green" stroke-width="0.2" d="M230.71,-544.92C230.12,-533.57 229.01,-512.35 228.04,-493.58"/>
<polygon fill="green" stroke="green" stroke-width="0.2" points="231.53,-493.3 227.51,-483.49 224.54,-493.66 231.53,-493.3"/>
</g>
<!-- ball x velocity&#45;&gt;304 -->
<g id="edge17" class="edge">
<title>ball x velocity&#45;&gt;304</title>
<path fill="none" stroke="red" stroke-width="0.22" d="M239.7,-545C247.69,-537.94 260.28,-528.08 273.13,-523.01 389.04,-477.33 439.39,-542.1 551.13,-487.01 554.75,-485.22 558.19,-482.83 561.37,-480.16"/>
<polygon fill="red" stroke="red" stroke-width="0.22" points="563.86,-482.62 568.66,-473.18 559.02,-477.57 563.86,-482.62"/>
</g>
<!-- ball x velocity&#45;&gt;306 -->
<g id="edge18" class="edge">
<title>ball x velocity&#45;&gt;306</title>
<path fill="none" stroke="green" stroke-width="0.13" stroke-dasharray="1,5" d="M235.62,-544.72C242.14,-532.31 254.43,-508.25 263.13,-487.01 279.54,-446.96 294.98,-399.34 304.25,-369.28"/>
<polygon fill="green" stroke="green" stroke-width="0.13" points="307.69,-370.01 307.26,-359.42 300.99,-367.96 307.69,-370.01"/>
</g>
<!-- ball x velocity&#45;&gt;574 -->
<g id="edge27" class="edge">
<title>ball x velocity&#45;&gt;574</title>
<path fill="none" stroke="green" stroke-width="0.22" stroke-dasharray="1,5" d="M240.51,-544.85C248.63,-538.09 260.95,-528.74 273.13,-523.01 330.11,-496.22 349.31,-503.25 410.13,-487.01 437.44,-479.72 468.5,-471.28 490.8,-465.2"/>
<polygon fill="green" stroke="green" stroke-width="0.22" points="491.96,-468.51 500.69,-462.5 490.12,-461.75 491.96,-468.51"/>
</g>
<!-- ball y velocity -->
<g id="node10" class="node">
<title>ball y velocity</title>
<polygon fill="lightgray" stroke="black" points="719.13,-661.35 651.13,-661.35 651.13,-643.35 719.13,-643.35 719.13,-661.35"/>
<text text-anchor="middle" x="685.13" y="-650.15" font-family="Times New Roman,serif" font-size="9.00">ball y velocity</text>
</g>
<!-- 87177 -->
<g id="node21" class="node">
<title>87177</title>
<ellipse fill="white" stroke="black" cx="903.13" cy="-338.58" rx="27.65" ry="27.65"/>
<text text-anchor="middle" x="903.13" y="-336.38" font-family="Times New Roman,serif" font-size="9.00">87177</text>
</g>
<!-- ball y velocity&#45;&gt;87177 -->
<g id="edge35" class="edge">
<title>ball y velocity&#45;&gt;87177</title>
<path fill="none" stroke="green" stroke-width="0.87" d="M719.33,-645.49C789.71,-633.1 945.49,-603.87 961.13,-585.23 1007.01,-530.58 989.72,-492.47 967.13,-424.78 959.7,-402.52 943.91,-381.39 929.88,-365.75"/>
<polygon fill="green" stroke="green" stroke-width="0.87" points="932.13,-363.02 922.75,-358.09 927,-367.79 932.13,-363.02"/>
</g>
<!-- ball y velocity&#45;&gt;304 -->
<g id="edge19" class="edge">
<title>ball y velocity&#45;&gt;304</title>
<path fill="none" stroke="green" stroke-width="0.18" stroke-dasharray="1,5" d="M688.76,-643.14C697.63,-621.69 718.11,-562.9 695.13,-523.01 677.31,-492.07 638.85,-474.28 611.54,-465.11"/>
<polygon fill="green" stroke="green" stroke-width="0.18" points="612.27,-461.67 601.68,-462.01 610.17,-468.35 612.27,-461.67"/>
</g>
<!-- 183134 -->
<g id="node23" class="node">
<title>183134</title>
<ellipse fill="white" stroke="black" cx="655.13" cy="-554.12" rx="31.23" ry="31.23"/>
<text text-anchor="middle" x="655.13" y="-551.92" font-family="Times New Roman,serif" font-size="9.00">183134</text>
</g>
<!-- ball y velocity&#45;&gt;183134 -->
<g id="edge42" class="edge">
<title>ball y velocity&#45;&gt;183134</title>
<path fill="none" stroke="green" stroke-width="0.25" d="M682.57,-643.14C679.16,-632.2 672.89,-612.09 667.21,-593.85"/>
<polygon fill="green" stroke="green" stroke-width="0.25" points="670.53,-592.77 664.22,-584.26 663.85,-594.85 670.53,-592.77"/>
</g>
<!-- ball y velocity&#45;&gt;306 -->
<g id="edge20" class="edge">
<title>ball y velocity&#45;&gt;306</title>
<path fill="none" stroke="red" stroke-width="0.53" d="M650.87,-650.64C519.32,-647.56 51.72,-633.29 8.13,-585.23 -18.37,-556.02 30.12,-427.94 33.13,-424.78 100.36,-354.38 223.77,-341.63 281.63,-339.68"/>
<polygon fill="red" stroke="red" stroke-width="0.53" points="281.73,-343.17 291.64,-339.42 281.56,-336.18 281.73,-343.17"/>
</g>
<!-- desired ball x cor -->
<g id="node11" class="node">
<title>desired ball x cor</title>
<polygon fill="lightgray" stroke="black" points="894.63,-737.46 817.63,-737.46 817.63,-719.46 894.63,-719.46 894.63,-737.46"/>
<text text-anchor="middle" x="856.13" y="-726.26" font-family="Times New Roman,serif" font-size="9.00">desired ball x cor</text>
</g>
<!-- 95667 -->
<g id="node25" class="node">
<title>95667</title>
<ellipse fill="white" stroke="black" cx="857.13" cy="-554.12" rx="27.65" ry="27.65"/>
<text text-anchor="middle" x="857.13" y="-551.92" font-family="Times New Roman,serif" font-size="9.00">95667</text>
</g>
<!-- desired ball x cor&#45;&gt;95667 -->
<g id="edge36" class="edge">
<title>desired ball x cor&#45;&gt;95667</title>
<path fill="none" stroke="red" stroke-width="0.12" stroke-dasharray="1,5" d="M853.74,-719.44C851.27,-710.69 847.56,-696.23 846.13,-683.46 843.05,-655.98 843.85,-648.8 846.13,-621.23 846.93,-611.53 848.39,-601.1 849.98,-591.46"/>
<polygon fill="red" stroke="red" stroke-width="0.12" points="853.47,-591.83 851.74,-581.38 846.57,-590.63 853.47,-591.83"/>
</g>
<!-- 286391 -->
<g id="node27" class="node">
<title>286391</title>
<ellipse fill="white" stroke="black" cx="886.13" cy="-652.35" rx="31.23" ry="31.23"/>
<text text-anchor="middle" x="886.13" y="-650.15" font-family="Times New Roman,serif" font-size="9.00">286391</text>
</g>
<!-- desired ball x cor&#45;&gt;286391 -->
<g id="edge49" class="edge">
<title>desired ball x cor&#45;&gt;286391</title>
<path fill="none" stroke="green" stroke-width="0.33" d="M859.46,-719.25C862.31,-712.19 866.65,-701.49 870.99,-690.75"/>
<polygon fill="green" stroke="green" stroke-width="0.33" points="874.27,-691.97 874.78,-681.39 867.79,-689.34 874.27,-691.97"/>
</g>
<!-- motor torque 2 -->
<g id="node13" class="node">
<title>motor torque 2</title>
<ellipse fill="lightblue" stroke="black" cx="638.13" cy="-338.58" rx="50.41" ry="50.41"/>
<text text-anchor="middle" x="638.13" y="-336.38" font-family="Times New Roman,serif" font-size="9.00">motor torque 2</text>
</g>
<!-- gripper opening timestamp -->
<g id="node15" class="node">
<title>gripper opening timestamp</title>
<ellipse fill="lightblue" stroke="black" cx="727.13" cy="-171.76" rx="80.72" ry="80.72"/>
<text text-anchor="middle" x="727.13" y="-169.56" font-family="Times New Roman,serif" font-size="9.00">gripper opening timestamp</text>
</g>
<!-- gripper opening timestamp&#45;&gt;46243 -->
<g id="edge51" class="edge">
<title>gripper opening timestamp&#45;&gt;46243</title>
<path fill="none" stroke="green" stroke-width="0.1" d="M775.89,-107.16C789.07,-89.97 802.69,-72.2 813.64,-57.91"/>
<polygon fill="green" stroke="green" stroke-width="0.1" points="816.45,-60 819.76,-49.93 810.9,-55.74 816.45,-60"/>
</g>
<!-- 72102&#45;&gt;46243 -->
<g id="edge34" class="edge">
<title>72102&#45;&gt;46243</title>
<path fill="none" stroke="green" stroke-width="0.28" d="M813.63,-428.23C817.77,-354.81 829.32,-149.58 834.06,-65.36"/>
<polygon fill="green" stroke="green" stroke-width="0.28" points="837.56,-65.42 834.63,-55.24 830.57,-65.02 837.56,-65.42"/>
</g>
<!-- 280167 -->
<g id="node18" class="node">
<title>280167</title>
<ellipse fill="white" stroke="black" cx="501.13" cy="-338.58" rx="31.23" ry="31.23"/>
<text text-anchor="middle" x="501.13" y="-336.38" font-family="Times New Roman,serif" font-size="9.00">280167</text>
</g>
<!-- 280167&#45;&gt;motor torque 1 -->
<g id="edge48" class="edge">
<title>280167&#45;&gt;motor torque 1</title>
<path fill="none" stroke="green" stroke-width="1.24" d="M486.03,-311.1C472.77,-287.84 453.09,-253.34 436.7,-224.61"/>
<polygon fill="green" stroke="green" stroke-width="1.24" points="439.73,-222.85 431.73,-215.9 433.65,-226.32 439.73,-222.85"/>
</g>
<!-- 808&#45;&gt;gripper opening timestamp -->
<g id="edge45" class="edge">
<title>808&#45;&gt;gripper opening timestamp</title>
<path fill="none" stroke="red" stroke-width="0.27" d="M760.55,-317.7C757.18,-303.07 752.33,-282.07 747.38,-260.58"/>
<polygon fill="red" stroke="red" stroke-width="0.27" points="750.76,-259.65 745.1,-250.69 743.93,-261.22 750.76,-259.65"/>
</g>
<!-- 304&#45;&gt;motor torque 1 -->
<g id="edge21" class="edge">
<title>304&#45;&gt;motor torque 1</title>
<path fill="none" stroke="red" stroke-width="0.17" stroke-dasharray="1,5" d="M580.23,-434.68C577.94,-401.75 569.83,-335.47 541.13,-288.37 520.47,-254.47 486.51,-225.33 457.96,-204.79"/>
<polygon fill="red" stroke="red" stroke-width="0.17" points="459.87,-201.85 449.68,-198.96 455.84,-207.58 459.87,-201.85"/>
</g>
<!-- 304&#45;&gt;motor torque 2 -->
<g id="edge22" class="edge">
<title>304&#45;&gt;motor torque 2</title>
<path fill="none" stroke="green" stroke-width="0.4" d="M590.16,-436.62C595.99,-424.84 603.89,-408.85 611.6,-393.25"/>
<polygon fill="green" stroke="green" stroke-width="0.4" points="614.81,-394.66 616.11,-384.14 608.54,-391.56 614.81,-394.66"/>
</g>
<!-- 304&#45;&gt;motor torque 3 -->
<g id="edge23" class="edge">
<title>304&#45;&gt;motor torque 3</title>
<path fill="none" stroke="green" stroke-width="0.28" stroke-dasharray="1,5" d="M567.85,-439.2C562.98,-434.12 557.17,-428.77 551.13,-424.78 515.19,-401.03 498.13,-410.85 461.13,-388.78 456.41,-385.97 451.67,-382.78 447.05,-379.41"/>
<polygon fill="green" stroke="green" stroke-width="0.28" points="448.97,-376.48 438.9,-373.21 444.74,-382.05 448.97,-376.48"/>
</g>
<!-- 304&#45;&gt;gripper opening timestamp -->
<g id="edge24" class="edge">
<title>304&#45;&gt;gripper opening timestamp</title>
<path fill="none" stroke="green" stroke-width="1.01" d="M601.79,-449.32C628.53,-440.93 674.38,-422.37 697.13,-388.78 721.95,-352.15 730.36,-303.94 732.17,-262.37"/>
<polygon fill="green" stroke="green" stroke-width="1.01" points="735.67,-262.34 732.49,-252.23 728.68,-262.11 735.67,-262.34"/>
</g>
<!-- 304&#45;&gt;280167 -->
<g id="edge47" class="edge">
<title>304&#45;&gt;280167</title>
<path fill="none" stroke="green" stroke-width="0.3" d="M569.33,-437.88C557.56,-420.92 539.17,-394.42 524.46,-373.2"/>
<polygon fill="green" stroke="green" stroke-width="0.3" points="527.18,-370.99 518.61,-364.77 521.43,-374.98 527.18,-370.99"/>
</g>
<!-- 304&#45;&gt;87177 -->
<g id="edge39" class="edge">
<title>304&#45;&gt;87177</title>
<path fill="none" stroke="red" stroke-width="0.14" d="M601.49,-449.54C639.87,-439.25 725.35,-415.33 795.13,-388.78 820.52,-379.13 848.39,-366.37 869.46,-356.26"/>
<polygon fill="red" stroke="red" stroke-width="0.14" points="871.16,-359.33 878.63,-351.83 868.11,-353.03 871.16,-359.33"/>
</g>
<!-- 183134&#45;&gt;304 -->
<g id="edge43" class="edge">
<title>183134&#45;&gt;304</title>
<path fill="none" stroke="red" stroke-width="0.16" d="M636.46,-528.84C625.29,-514.32 611.14,-495.92 599.95,-481.37"/>
<polygon fill="red" stroke="red" stroke-width="0.16" points="602.62,-479.1 593.75,-473.3 597.07,-483.36 602.62,-479.1"/>
</g>
<!-- 306&#45;&gt;motor torque 1 -->
<g id="edge25" class="edge">
<title>306&#45;&gt;motor torque 1</title>
<path fill="none" stroke="red" stroke-width="0.21" d="M323.37,-319.63C336.24,-297.05 358.9,-257.33 377.41,-224.88"/>
<polygon fill="red" stroke="red" stroke-width="0.21" points="380.59,-226.36 382.51,-215.94 374.51,-222.89 380.59,-226.36"/>
</g>
<!-- 95667&#45;&gt;72102 -->
<g id="edge41" class="edge">
<title>95667&#45;&gt;72102</title>
<path fill="none" stroke="red" stroke-width="0.32" d="M845.78,-528.84C840.34,-517.22 833.74,-503.11 827.84,-490.48"/>
<polygon fill="red" stroke="red" stroke-width="0.32" points="830.89,-488.75 823.48,-481.17 824.55,-491.71 830.89,-488.75"/>
</g>
<!-- 95667&#45;&gt;304 -->
<g id="edge37" class="edge">
<title>95667&#45;&gt;304</title>
<path fill="none" stroke="red" stroke-width="1.04" d="M837.67,-534.28C832.59,-530.11 826.91,-526.03 821.13,-523.01 751.38,-486.45 659.33,-468.44 612.06,-461.1"/>
<polygon fill="red" stroke="red" stroke-width="1.04" points="612.55,-457.63 602.14,-459.61 611.51,-464.55 612.55,-457.63"/>
</g>
<!-- 723637&#45;&gt;306 -->
<g id="edge55" class="edge">
<title>723637&#45;&gt;306</title>
<path fill="none" stroke="green" stroke-width="0.48" d="M903.14,-435.52C896.67,-431.25 889.43,-427.27 882.13,-424.78 768.5,-386.09 445.79,-451.02 343.13,-388.78 335.18,-383.96 329.04,-376.15 324.45,-368.15"/>
<polygon fill="green" stroke="green" stroke-width="0.48" points="327.56,-366.54 319.92,-359.2 321.32,-369.7 327.56,-366.54"/>
</g>
<!-- 286391&#45;&gt;95667 -->
<g id="edge50" class="edge">
<title>286391&#45;&gt;95667</title>
<path fill="none" stroke="green" stroke-width="0.1" d="M877.35,-622.22C874.35,-612.24 870.95,-600.97 867.81,-590.55"/>
<polygon fill="green" stroke="green" stroke-width="0.1" points="871.13,-589.45 864.9,-580.89 864.43,-591.47 871.13,-589.45"/>
</g>
<!-- 298938&#45;&gt;306 -->
<g id="edge53" class="edge">
<title>298938&#45;&gt;306</title>
<path fill="none" stroke="red" stroke-width="0.61" d="M98.34,-436.89C104.67,-432.69 111.54,-428.39 118.13,-424.78 174.8,-393.76 245.04,-365.36 283.87,-350.48"/>
<polygon fill="red" stroke="red" stroke-width="0.61" points="285.39,-353.65 293.49,-346.82 282.9,-347.1 285.39,-353.65"/>
</g>
<!-- 574&#45;&gt;808 -->
<g id="edge44" class="edge">
<title>574&#45;&gt;808</title>
<path fill="none" stroke="red" stroke-width="0.27" d="M534.11,-438.71C538.96,-433.59 544.84,-428.34 551.13,-424.78 609.31,-391.89 636.5,-416.89 697.13,-388.78 713.14,-381.36 729.21,-369.96 741.71,-360"/>
<polygon fill="red" stroke="red" stroke-width="0.27" points="744.24,-362.45 749.75,-353.4 739.8,-357.04 744.24,-362.45"/>
</g>
<!-- 574&#45;&gt;306 -->
<g id="edge28" class="edge">
<title>574&#45;&gt;306</title>
<path fill="none" stroke="green" stroke-width="0.3" d="M506.93,-440.03C500.97,-434.53 493.67,-428.7 486.13,-424.78 427.96,-394.6 395.9,-427.66 343.13,-388.78 335.84,-383.41 329.95,-375.68 325.39,-367.93"/>
<polygon fill="green" stroke="green" stroke-width="0.3" points="328.41,-366.17 320.63,-358.97 322.23,-369.45 328.41,-366.17"/>
</g>
</g>
</svg>
